<svg width="73" height="73" viewBox="0 0 73 73" fill="none" xmlns="http://www.w3.org/2000/svg">
<path d="M61.2316 37.0984C61.1989 37.1483 61.169 37.2018 61.1421 37.259C61.1211 37.3237 61.1031 37.4189 61.0882 37.5447C61.0538 37.836 61.1116 38.0845 61.2619 38.2902C61.4179 38.5034 61.6614 38.6295 61.9925 38.6687C62.1977 38.6929 62.4043 38.6771 62.6123 38.6211C62.8262 38.5726 63.0769 38.4679 63.3644 38.3073C63.5943 38.18 63.8267 38.0598 64.0616 37.9466C64.3031 37.8342 64.5762 37.796 64.8807 37.832C65.1654 37.8657 65.4021 37.9642 65.5909 38.1275C65.7863 38.2916 65.9299 38.4965 66.0217 38.7423C66.1127 38.9947 66.1417 39.26 66.1089 39.538C66.0862 39.73 66.0407 39.916 65.9724 40.0959C65.9041 40.2758 65.8001 40.4179 65.6602 40.5222C65.5262 40.6339 65.34 40.6756 65.1016 40.6474C65.042 40.6404 64.9712 40.6152 64.889 40.572C64.8127 40.5361 64.7487 40.4815 64.6969 40.4083C64.6452 40.335 64.6259 40.2421 64.6392 40.1296C64.6518 40.0236 64.6991 39.9353 64.7814 39.8644C64.8702 39.7944 64.9775 39.7668 65.1033 39.7817C65.2225 39.7957 65.3323 39.8322 65.4327 39.8911C65.539 39.9574 65.64 40.0398 65.7358 40.1384C65.8301 40.022 65.8894 39.8612 65.9137 39.6559C65.9426 39.411 65.8841 39.196 65.7382 39.0109C65.5923 38.8258 65.3703 38.7156 65.0724 38.6804C64.9201 38.6624 64.7817 38.6695 64.657 38.7018C64.539 38.7348 64.412 38.7869 64.276 38.8581C64.1393 38.9359 63.9675 39.0264 63.7606 39.1295C63.4894 39.2652 63.2314 39.3757 62.9863 39.4608C62.7413 39.546 62.4897 39.5733 62.2315 39.5428C61.9269 39.5068 61.6649 39.3952 61.4453 39.2081C61.2316 39.0285 61.0738 38.8017 60.972 38.5278C60.8701 38.254 60.8375 37.9615 60.8743 37.6503C60.9009 37.4252 60.9595 37.214 61.05 37.0165C61.1404 36.8191 61.263 36.6624 61.4177 36.5465C61.5782 36.4379 61.7777 36.3977 62.016 36.4259C62.1087 36.4369 62.2012 36.478 62.2934 36.5493C62.3931 36.6148 62.4343 36.7204 62.4171 36.866C62.3983 37.0249 62.3188 37.1297 62.1785 37.1802C62.0449 37.2315 61.8987 37.2478 61.7398 37.229C61.6339 37.2165 61.539 37.1952 61.4553 37.1652C61.3774 37.1425 61.3029 37.1203 61.2316 37.0984Z" fill="#F5C063"/>
<path d="M64.4142 46.2735C64.4957 46.0337 64.4793 45.7606 64.3651 45.4542C64.2488 45.1542 64.0534 44.8484 63.7791 44.5369C63.5047 44.2254 63.1701 43.9357 62.7753 43.6678C62.3783 43.4062 61.94 43.194 61.4602 43.031C61.1383 42.9216 60.8844 42.9022 60.6984 42.9728C60.5167 43.0519 60.3926 43.1893 60.3261 43.385C60.2489 43.6122 60.239 43.8694 60.2964 44.1564C60.3537 44.4435 60.5184 44.767 60.7904 45.1269L60.6503 45.2906C60.4828 45.0999 60.3344 44.8734 60.2052 44.6113C60.076 44.3491 59.9901 44.0735 59.9475 43.7844C59.909 43.5038 59.9359 43.2278 60.0281 42.9563C60.1568 42.5776 60.3765 42.3143 60.6873 42.1664C60.998 42.0185 61.3838 42.0228 61.8446 42.1794C62.135 42.278 62.4335 42.4252 62.7402 42.6209C63.051 42.8251 63.3438 43.0618 63.6184 43.3312C63.8972 43.6089 64.1295 43.9096 64.3152 44.2333C64.5073 44.559 64.635 44.8981 64.6984 45.2506C64.7617 45.603 64.7333 45.956 64.6132 46.3095C64.5189 46.5872 64.3648 46.8024 64.151 46.9551C63.9435 47.1099 63.7135 47.1444 63.461 47.0586C63.3411 47.0179 63.2308 46.9487 63.1301 46.8512C63.0337 46.7621 62.9647 46.6542 62.9233 46.5274C62.8818 46.4007 62.8847 46.2679 62.9319 46.129C62.9769 45.9965 63.0449 45.9104 63.1358 45.8709C63.233 45.8335 63.3321 45.832 63.433 45.8663C63.6161 45.9285 63.7461 46.0536 63.823 46.2417C63.9063 46.4319 63.9326 46.6239 63.9019 46.8177C64.0118 46.7846 64.1091 46.7261 64.1939 46.6423C64.285 46.5606 64.3584 46.4376 64.4142 46.2735Z" fill="#F5C063"/>
<path d="M58.4957 47.4223L58.9374 46.6728L62.0239 49.885C62.1853 50.0575 62.313 50.156 62.4069 50.1804C62.4975 50.2106 62.5715 50.1768 62.6291 50.0792C62.7035 49.9528 62.7052 49.799 62.634 49.6178C62.5629 49.4366 62.4003 49.1937 62.1464 48.8893L61.8937 48.5894L61.9902 48.4257L62.4921 49.0118C62.6825 49.2401 62.8071 49.4489 62.8657 49.6383C62.921 49.8334 62.9344 50.0076 62.9058 50.1611C62.8797 50.3236 62.8327 50.4623 62.765 50.5772C62.6634 50.7495 62.555 50.8481 62.4397 50.873C62.3211 50.9037 62.1997 50.8863 62.0757 50.821C61.9484 50.7614 61.8214 50.6749 61.6947 50.5615C61.5704 50.4573 61.4524 50.349 61.3406 50.2367L58.4957 47.4223ZM61.5239 52.1904C61.6018 52.0583 61.6198 51.8833 61.5781 51.6652C61.5388 51.4563 61.4453 51.2078 61.2979 50.9196C61.1528 50.6407 60.9606 50.33 60.7212 49.9877C60.4842 49.6546 60.2099 49.2994 59.8983 48.9223C59.5832 48.5508 59.2349 48.1637 58.8533 47.7608L59.8291 48.6261C60.2802 49.1474 60.6508 49.6018 60.9408 49.9895C61.2274 50.3828 61.441 50.7293 61.5817 51.0289C61.7282 51.3319 61.804 51.5971 61.8092 51.8246C61.8167 52.0612 61.7647 52.2743 61.6529 52.4638C61.5582 52.6246 61.4394 52.721 61.2968 52.753C61.1507 52.7908 61.0059 52.7673 60.8623 52.6827C60.7474 52.615 60.6581 52.5236 60.5943 52.4086C60.5363 52.297 60.5056 52.1784 60.5024 52.0526C60.5015 51.936 60.5332 51.8231 60.5975 51.714C60.655 51.6164 60.73 51.5484 60.8223 51.5099C60.917 51.4806 61.0131 51.4947 61.1107 51.5522C61.2026 51.6064 61.2729 51.671 61.3215 51.7461C61.3758 51.8246 61.4119 51.9078 61.4298 51.9957C61.4476 52.0836 61.4489 52.1733 61.4336 52.2649C61.4518 52.2602 61.4689 52.2509 61.4848 52.2371C61.4973 52.229 61.5104 52.2134 61.5239 52.1904Z" fill="#F5C063"/>
<path d="M58.3026 56.4779C58.4489 56.3226 58.5275 56.1127 58.5385 55.8483C58.5497 55.5933 58.5058 55.3046 58.4066 54.9821C58.3076 54.6691 58.1706 54.343 57.9954 54.004C57.8157 53.6698 57.6079 53.3458 57.3722 53.0321C57.1365 52.7185 56.8901 52.4405 56.6329 52.1982C56.4145 51.9925 56.2224 51.8756 56.0565 51.8475C55.886 51.8243 55.7368 51.8806 55.6088 52.0165C55.4625 52.1718 55.3837 52.3769 55.3724 52.6319C55.3615 52.8963 55.4031 53.1875 55.4975 53.5054C55.5967 53.8278 55.7362 54.1562 55.9159 54.4904C56.0957 54.8246 56.301 55.1462 56.5318 55.4553C56.7676 55.769 57.0164 56.0493 57.2785 56.2961C57.5017 56.5064 57.6938 56.6233 57.8549 56.6468C58.0208 56.6749 58.17 56.6186 58.3026 56.4779ZM57.5865 51.9151C57.8 52.1163 58.0055 52.3648 58.203 52.6608C58.4004 52.9567 58.5681 53.2795 58.7058 53.6291C58.8436 53.9787 58.9366 54.332 58.985 54.689C59.0288 55.0508 59.0062 55.4005 58.9172 55.738C58.8331 56.08 58.663 56.3869 58.407 56.6587C58.1236 56.9595 57.8026 57.1106 57.4443 57.1118C57.0861 57.1225 56.713 56.945 56.3248 56.5792C56.1113 56.3781 55.9058 56.1295 55.7084 55.8336C55.5109 55.5376 55.3433 55.2149 55.2055 54.8653C55.0678 54.5156 54.977 54.1599 54.9332 53.7981C54.8849 53.4411 54.9027 53.0916 54.9869 52.7495C55.0758 52.412 55.2483 52.1074 55.5044 51.8357C55.7878 51.5348 56.111 51.3813 56.4739 51.3752C56.8323 51.374 57.2032 51.554 57.5865 51.9151Z" fill="#F5C063"/>
<path d="M52.0938 56.488C52.0238 56.3001 51.9474 56.1661 51.8648 56.086C51.7861 56.0112 51.6954 56.011 51.5928 56.0852C51.4847 56.1633 51.4278 56.295 51.4219 56.4803C51.4145 56.6749 51.4681 56.9652 51.5827 57.3512L51.6941 57.7272L51.5402 57.8386L51.315 57.1005C51.2368 56.8445 51.2041 56.6172 51.2169 56.4187C51.2282 56.2295 51.2737 56.065 51.3535 55.925C51.4333 55.7851 51.5435 55.6643 51.6839 55.5627C51.8622 55.4338 52.0199 55.3732 52.1572 55.381C52.2851 55.3872 52.4008 55.4392 52.5045 55.5371C52.6027 55.6388 52.6879 55.7623 52.7601 55.9076C52.8307 56.0622 52.894 56.218 52.9499 56.375L54.799 61.7141C54.8778 61.9368 54.9808 62.0679 55.1082 62.1075C55.2355 62.1471 55.4315 62.0711 55.6962 61.8797L55.7626 62.0909C55.4693 62.3112 55.2288 62.5303 55.041 62.7484C54.857 62.9719 54.6968 63.2112 54.5604 63.4662L52.0938 56.488Z" fill="#F5C063"/>
<path d="M49.2036 58.4374C49.1603 58.2416 49.1034 58.0982 49.0327 58.0074C48.9651 57.9225 48.8754 57.9096 48.7634 57.9689C48.6455 58.0312 48.5708 58.1537 48.5392 58.3364C48.5049 58.528 48.5176 58.823 48.5775 59.2212L48.6356 59.609L48.4677 59.6979L48.3473 58.9357C48.3054 58.6713 48.3046 58.4417 48.3448 58.2469C48.3823 58.0611 48.4503 57.9045 48.5487 57.777C48.6472 57.6495 48.773 57.5452 48.9263 57.4641C49.1207 57.3612 49.2853 57.3231 49.4202 57.3499C49.546 57.3738 49.6534 57.4414 49.7424 57.5527C49.8256 57.6671 49.8928 57.8012 49.944 57.9551C49.9925 58.118 50.0335 58.2811 50.0671 58.4444L51.1564 63.9886C51.2035 64.2201 51.2873 64.3643 51.4079 64.4212C51.5285 64.4781 51.7332 64.4301 52.0219 64.2773L52.0582 64.4957C51.7373 64.6731 51.4686 64.8567 51.2523 65.0466C51.0391 65.2423 50.8472 65.457 50.6766 65.6905L49.2036 58.4374Z" fill="#F5C063"/>
<path d="M35.0844 61.7462C35.1413 61.5963 35.1709 61.4547 35.1733 61.3212C35.1686 61.1939 35.093 61.1253 34.9467 61.1154C34.8137 61.1064 34.6857 61.1712 34.5627 61.3099C34.4392 61.4552 34.3015 61.7132 34.1494 62.0838L34.0047 62.4448L33.8151 62.432L34.0939 61.7192C34.1918 61.4585 34.3124 61.2562 34.4558 61.1122C34.5987 60.9749 34.7454 60.8813 34.8958 60.8313C35.0462 60.7814 35.1879 60.7609 35.3209 60.7699C35.72 60.7969 35.9167 61.0007 35.9109 61.3812C35.9104 61.488 35.8954 61.6106 35.866 61.749C35.8299 61.8869 35.783 62.0374 35.7252 62.2005L33.9229 67.5008C33.8477 67.7229 33.8464 67.8899 33.9191 68.0017C33.9917 68.1135 34.1909 68.1805 34.5169 68.2026L34.4428 68.408C34.0765 68.3899 33.7514 68.4046 33.4676 68.4522C33.1833 68.5065 32.9105 68.5882 32.6491 68.6975L35.0844 61.7462ZM37.3645 61.229C37.1983 61.2178 37.0055 61.3016 36.7862 61.4805C36.5599 61.6657 36.329 61.9173 36.0936 62.2355C35.8512 62.5598 35.6257 62.9288 35.4173 63.3423C35.2018 63.762 35.0253 64.1978 34.8878 64.6495L35.1104 63.5821C35.4162 62.9146 35.7128 62.3834 36.0001 61.9886C36.2808 61.5933 36.5605 61.3116 36.8391 61.1433C37.1107 60.9813 37.3895 60.91 37.6755 60.9294C37.8817 60.9433 38.0615 61.0023 38.2148 61.1062C38.361 61.2163 38.4708 61.3708 38.5442 61.5695C38.6176 61.7683 38.6442 62.0173 38.6239 62.3166C38.6023 62.6359 38.5292 62.9751 38.4047 63.3341C38.273 63.6994 38.0986 64.0551 37.8814 64.4012C37.6642 64.7473 37.4126 65.0577 37.1267 65.3323C36.8338 65.6132 36.5182 65.8324 36.1802 65.9899C35.8421 66.1474 35.4901 66.2138 35.1243 66.189C34.9713 66.1786 34.8324 66.1091 34.7074 65.9804C34.5821 65.8583 34.5206 65.6804 34.5231 65.4467L34.6164 65.2526C34.6268 65.4938 34.6818 65.6679 34.7815 65.7749C34.8807 65.8885 34.9968 65.9498 35.1299 65.9589C35.3826 65.976 35.6346 65.9062 35.8857 65.7495C36.1302 65.5923 36.3586 65.3772 36.5709 65.1043C36.7831 64.8313 36.9744 64.5235 37.1446 64.1809C37.3143 63.845 37.4515 63.4968 37.5561 63.1363C37.6602 62.7826 37.7231 62.446 37.7447 62.1268C37.7646 61.8341 37.7429 61.6121 37.6796 61.4609C37.6159 61.3162 37.5109 61.2389 37.3645 61.229Z" fill="#F5C063"/>
<path d="M27.4819 64.5865C27.6839 64.6551 27.9075 64.6395 28.1526 64.5398C28.3893 64.4441 28.6337 64.2843 28.8859 64.0601C29.1296 63.8402 29.3693 63.5801 29.605 63.28C29.8344 62.9777 30.0429 62.6543 30.2304 62.3096C30.4179 61.9649 30.5685 61.6253 30.6822 61.2908C30.7787 61.0067 30.8052 60.7834 30.7619 60.6208C30.7123 60.4561 30.5991 60.3437 30.4223 60.2836C30.2203 60.215 30.001 60.2285 29.7643 60.3241C29.5192 60.4239 29.2716 60.5827 29.0216 60.8005C28.7694 61.0247 28.5286 61.2879 28.2992 61.5901C28.0698 61.8924 27.8624 62.2127 27.677 62.5511C27.4895 62.8957 27.3379 63.2385 27.2221 63.5794C27.1234 63.8697 27.0968 64.0931 27.1423 64.2493C27.1857 64.4119 27.2989 64.5243 27.4819 64.5865ZM31.3356 62.0408C31.2413 62.3186 31.1004 62.6087 30.9132 62.9112C30.7259 63.2137 30.5019 63.5002 30.241 63.7707C29.9801 64.0411 29.6974 64.2725 29.3927 64.4647C29.0817 64.6547 28.7542 64.7793 28.4102 64.8385C28.0641 64.904 27.7143 64.8767 27.3608 64.7566C26.9694 64.6236 26.6988 64.3944 26.5488 64.0688C26.3905 63.7475 26.3971 63.3343 26.5686 62.8293C26.663 62.5516 26.8038 62.2614 26.991 61.9589C27.1783 61.6564 27.4024 61.3699 27.6632 61.0995C27.9241 60.829 28.21 60.5988 28.521 60.4087C28.8257 60.2165 29.1511 60.0877 29.4973 60.0222C29.8412 59.963 30.19 59.9935 30.5435 60.1136C30.9348 60.2465 31.2086 60.4769 31.3649 60.8045C31.5148 61.1301 31.505 61.5422 31.3356 62.0408Z" fill="#F5C063"/>
<path d="M23.5713 58.0414C23.8888 57.9695 24.2055 57.9456 24.5213 57.9698C24.8278 57.9957 25.1071 58.096 25.3591 58.2707C25.6111 58.4454 25.7808 58.6279 25.8679 58.8181C25.9551 59.0083 25.9822 59.1974 25.9492 59.3854C25.9124 59.5789 25.8389 59.7551 25.7288 59.914C25.5427 60.1825 25.2742 60.406 24.9233 60.5846C24.5724 60.7632 24.1768 60.9067 23.7366 61.0153C23.287 61.1255 22.8251 61.2068 22.3507 61.2593C21.8763 61.3117 21.4292 61.3424 21.0092 61.3515L20.8606 61.285C20.9711 61.3129 21.0965 61.3309 21.2369 61.3389C21.3735 61.3525 21.5093 61.3614 21.6442 61.3657C21.7753 61.3755 21.8999 61.3889 22.018 61.4058C22.1322 61.4282 22.2277 61.466 22.3044 61.5192C22.4085 61.5913 22.4761 61.6869 22.5073 61.8058C22.5291 61.9264 22.5866 62.019 22.6798 62.0835C22.7674 62.1443 22.868 62.1572 22.9814 62.1223C23.0911 62.0928 23.2425 62.0031 23.4357 61.8531L23.7451 61.6174L23.9012 61.7256L23.2963 62.1946C22.9627 62.4419 22.693 62.5794 22.4872 62.6071C22.2721 62.6365 22.0934 62.6018 21.9509 62.5031C21.8468 62.4309 21.7782 62.3427 21.7449 62.2386C21.7062 62.1306 21.6702 62.0246 21.6369 61.9204C21.5944 61.8179 21.5211 61.7306 21.417 61.6584C21.2855 61.5673 21.1544 61.5048 21.0237 61.471C20.8892 61.4427 20.7423 61.4382 20.5829 61.4575L20.3596 61.5339L20.244 61.3321C20.6922 61.2939 21.1436 61.2337 21.5982 61.1513C22.0472 61.0651 22.4812 60.9482 22.8999 60.8004C23.3094 60.6543 23.6873 60.4661 24.0336 60.2356C24.3761 60.0107 24.6613 59.7338 24.8892 59.4051C25.0791 59.1311 25.1709 58.9109 25.1647 58.7443C25.1584 58.5778 25.0868 58.447 24.9499 58.3521C24.7855 58.2381 24.5787 58.1678 24.3295 58.1411C24.0766 58.1199 23.7987 58.1463 23.4959 58.2203L23.5713 58.0414ZM22.9666 56.9652C22.6982 56.7791 22.4121 56.6944 22.1085 56.7111C21.7995 56.724 21.4956 56.8054 21.197 56.9554C20.8946 57.1108 20.6137 57.3054 20.3543 57.5393C20.0856 57.7748 19.8565 58.0176 19.667 58.2675C19.4738 58.5229 19.3391 58.7581 19.2631 58.9731C19.352 59.0671 19.4378 59.1834 19.5203 59.3217C19.5991 59.4655 19.6481 59.6171 19.6674 59.7765C19.6829 59.9414 19.6394 60.0978 19.5369 60.2457C19.4381 60.3882 19.3295 60.463 19.211 60.4701C19.0925 60.4772 18.9949 60.4541 18.9182 60.401C18.836 60.344 18.7819 60.27 18.7558 60.1789C18.7243 60.084 18.7142 59.9756 18.7256 59.8538C18.7371 59.7319 18.7654 59.5974 18.8106 59.4503C18.852 59.3087 18.9092 59.1618 18.9823 59.0096C19.0984 58.7251 19.2683 58.4332 19.4919 58.1339C19.7155 57.8347 19.9767 57.5574 20.2753 57.3021C20.5702 57.0522 20.891 56.8527 21.2377 56.7037C21.5843 56.5546 21.9387 56.488 22.3009 56.5038C22.6576 56.5158 23.0086 56.6414 23.3537 56.8807C23.5291 57.0022 23.6679 57.1471 23.7703 57.3154C23.8727 57.4837 23.9134 57.6823 23.8926 57.9113C23.8664 58.1364 23.7526 58.3942 23.5513 58.6846C23.3842 58.9257 23.1825 59.1347 22.9463 59.3116C22.7046 59.4848 22.4562 59.6208 22.2011 59.7198C21.9459 59.8187 21.7119 59.8755 21.4989 59.8901C21.286 59.9048 21.122 59.8722 21.0069 59.7925C20.9248 59.7355 20.8854 59.6636 20.8888 59.5767C20.8867 59.4861 20.9125 59.3904 20.9661 59.2896C21.0105 59.1906 21.0611 59.0999 21.1181 59.0178C21.3232 58.7219 21.6142 58.4775 21.9913 58.2846C22.3628 58.0879 22.8077 57.9785 23.3259 57.9565L23.2645 58.1329C22.8665 58.1571 22.4901 58.2613 22.1354 58.4453C21.7807 58.6294 21.5027 58.8666 21.3014 59.157C21.2254 59.2666 21.1737 59.3646 21.1463 59.451C21.115 59.5429 21.1295 59.6097 21.1898 59.6515C21.2775 59.7123 21.4255 59.7094 21.6338 59.6429C21.8383 59.5819 22.0576 59.4703 22.2917 59.3081C22.5166 59.1476 22.7125 58.9468 22.8796 58.7057C23.0164 58.5084 23.1274 58.3015 23.2127 58.0848C23.2925 57.8643 23.3194 57.6559 23.2933 57.4594C23.2618 57.2591 23.1529 57.0944 22.9666 56.9652Z" fill="#F5C063"/>
<path d="M19.2432 53.9067L19.7858 54.5868L15.684 56.3243C15.6048 56.3533 15.5246 56.3917 15.4433 56.4395C15.3527 56.4863 15.2896 56.5408 15.2541 56.6033C15.2134 56.6698 15.2263 56.7448 15.2929 56.8282C15.3843 56.9428 15.5227 56.9987 15.7081 56.9959C15.8882 56.9971 16.1756 56.9298 16.5704 56.794L16.9407 56.6648L17.0592 56.8134L16.3327 57.0732C15.9129 57.2205 15.5844 57.2523 15.3471 57.1687C15.1057 57.0799 14.9184 56.9521 14.7854 56.7854C14.6606 56.629 14.6051 56.49 14.6188 56.3682C14.6283 56.2411 14.6858 56.1314 14.791 56.0389C14.8869 55.9453 15.0104 55.8595 15.1615 55.7817C15.3032 55.7027 15.4491 55.629 15.5991 55.5605L19.2432 53.9067ZM17.3304 54.8444C16.7159 55.0362 16.1811 55.1729 15.726 55.2545C15.2709 55.3362 14.8804 55.3705 14.5546 55.3576C14.2235 55.3489 13.9476 55.2917 13.7271 55.1863C13.4971 55.0798 13.3073 54.9327 13.1576 54.7451C12.9622 54.5002 12.8891 54.2856 12.9383 54.1014C12.9781 53.9161 13.0933 53.756 13.284 53.6209C13.4695 53.4899 13.6836 53.3788 13.9263 53.2875L16.8138 52.2246C16.992 52.1593 17.1259 52.0866 17.2155 52.0065C17.2958 51.9254 17.2902 51.8275 17.1987 51.7129C17.1197 51.6139 16.9881 51.5611 16.8038 51.5546C16.6154 51.5429 16.3212 51.6071 15.9212 51.7471L15.5509 51.8763L15.4324 51.7277L16.1589 51.4679C16.436 51.3662 16.6755 51.3244 16.8775 51.3423C17.0753 51.3551 17.2428 51.4048 17.3802 51.4914C17.5185 51.5686 17.6314 51.6619 17.7187 51.7714C17.8185 51.8964 17.8808 52.0173 17.9056 52.1339C17.9263 52.2454 17.9194 52.349 17.8849 52.4447C17.8368 52.5769 17.7289 52.6928 17.5612 52.7925C17.3934 52.8923 17.1934 52.9836 16.9611 53.0666L14.133 54.1077C14.0392 54.1398 13.9366 54.1876 13.8251 54.2509C13.7043 54.3133 13.6151 54.3886 13.5578 54.477C13.4952 54.5696 13.5138 54.6785 13.6136 54.8035C13.7133 54.9286 13.8741 55.0178 14.0958 55.0712C14.3175 55.1246 14.5902 55.1458 14.914 55.1348C15.2327 55.1279 15.5909 55.0852 15.9887 55.0066C16.3813 54.9321 16.801 54.8275 17.2479 54.6928C17.6853 54.5569 18.1379 54.392 18.6057 54.1979L17.3304 54.8444Z" fill="#F5C063"/>
<path d="M11.9487 36.7978C11.9799 36.747 12.0081 36.6925 12.0332 36.6345C12.0523 36.5692 12.0673 36.4735 12.0783 36.3473C12.1037 36.0551 12.0382 35.8085 11.8818 35.6075C11.7192 35.3992 11.4719 35.2807 11.1398 35.2517C10.9339 35.2338 10.7279 35.256 10.5217 35.3184C10.3095 35.3735 10.0621 35.4858 9.77968 35.6552C9.55384 35.7895 9.32527 35.9168 9.09395 36.0372C8.85598 36.157 8.58425 36.2036 8.27874 36.1769C7.99315 36.1521 7.75349 36.0609 7.55976 35.9035C7.35938 35.7455 7.20954 35.5451 7.11024 35.3022C7.01152 35.0527 6.97431 34.7885 6.99861 34.5096C7.01539 34.3169 7.05512 34.1297 7.11782 33.9478C7.18051 33.7659 7.28015 33.6206 7.41675 33.5121C7.54729 33.3963 7.73211 33.3488 7.97121 33.3697C8.03098 33.3749 8.10259 33.3978 8.18604 33.4386C8.26342 33.4721 8.32911 33.5246 8.3831 33.5963C8.43708 33.6679 8.45916 33.7601 8.44932 33.873C8.44007 33.9793 8.39544 34.0691 8.31544 34.1424C8.2288 34.2152 8.12238 34.2461 7.99619 34.2351C7.87665 34.2247 7.76577 34.1916 7.66355 34.1358C7.55528 34.0729 7.45177 33.9936 7.35302 33.898C7.26233 34.0172 7.20802 34.1798 7.19008 34.3857C7.16868 34.6314 7.23376 34.8446 7.38533 35.0251C7.53691 35.2056 7.76213 35.3088 8.061 35.3349C8.21375 35.3482 8.35193 35.3368 8.47552 35.3007C8.59248 35.2641 8.71781 35.2081 8.85152 35.1327C8.98581 35.0507 9.15475 34.955 9.35835 34.8456C9.62519 34.7016 9.87976 34.5832 10.122 34.4905C10.3643 34.3979 10.615 34.3628 10.874 34.3854C11.1795 34.412 11.4449 34.5154 11.6701 34.6957C11.8892 34.8687 12.0539 35.0905 12.1642 35.3611C12.2745 35.6316 12.316 35.923 12.2888 36.2352C12.2691 36.461 12.2171 36.6739 12.1328 36.874C12.0484 37.0741 11.9307 37.2345 11.7797 37.3552C11.6226 37.4687 11.4245 37.515 11.1854 37.4942C11.0924 37.4861 10.9987 37.4478 10.9043 37.3793C10.8027 37.3169 10.7582 37.2127 10.7709 37.0666C10.7848 36.9072 10.8611 36.8001 10.9997 36.7452C11.1317 36.6898 11.2773 36.669 11.4367 36.6829C11.543 36.6922 11.6384 36.7105 11.723 36.738C11.8016 36.7582 11.8768 36.7781 11.9487 36.7978Z" fill="#F5C063"/>
<path d="M8.4525 27.816C8.37922 28.0585 8.40486 28.3309 8.52941 28.6332C8.65588 28.9291 8.86154 29.228 9.14636 29.53C9.43119 29.8319 9.77545 30.1101 10.1791 30.3644C10.5848 30.6123 11.0301 30.8096 11.5151 30.9561C11.8405 31.0545 12.095 31.0652 12.2784 30.9883C12.4574 30.9031 12.5767 30.7616 12.6365 30.5638C12.706 30.334 12.7071 30.0767 12.64 29.7918C12.5729 29.5068 12.3973 29.1891 12.1132 28.8386L12.2476 28.6703C12.4216 28.8552 12.5776 29.0765 12.7156 29.3341C12.8537 29.5917 12.9489 29.8642 13.0013 30.1517C13.0493 30.4308 13.0318 30.7076 12.9489 30.982C12.8332 31.3649 12.6226 31.6355 12.317 31.7939C12.0115 31.9523 11.6258 31.9611 11.1599 31.8203C10.8664 31.7316 10.563 31.5947 10.2498 31.4095C9.93223 31.216 9.63161 30.9894 9.34797 30.7296C9.05988 30.4614 8.8175 30.1688 8.62083 29.8517C8.41777 29.5326 8.2786 29.1981 8.20331 28.848C8.12803 28.4979 8.14438 28.1442 8.25238 27.7868C8.33723 27.506 8.4839 27.2857 8.69239 27.1259C8.8945 26.9641 9.12318 26.9217 9.37845 26.9989C9.4997 27.0355 9.61227 27.1009 9.71617 27.195C9.81561 27.2807 9.88819 27.3862 9.93392 27.5115C9.97964 27.6367 9.98129 27.7696 9.93887 27.9099C9.89837 28.044 9.83338 28.1323 9.74389 28.1749C9.64803 28.2156 9.54904 28.2205 9.44694 28.1896C9.26187 28.1337 9.1277 28.013 9.04442 27.8277C8.95476 27.6404 8.92194 27.4494 8.94595 27.2547C8.83733 27.2915 8.74206 27.3533 8.66015 27.44C8.57186 27.5247 8.50264 27.65 8.4525 27.816Z" fill="#F5C063"/>
<path d="M14.3478 26.405L13.9284 27.1672L10.7484 24.0476C10.582 23.8799 10.4515 23.7852 10.3568 23.7636C10.2654 23.7361 10.1924 23.772 10.1378 23.8713C10.067 23.9998 10.0699 24.1536 10.1464 24.3326C10.2229 24.5117 10.3925 24.7496 10.6553 25.0464L10.9168 25.3387L10.8252 25.5052L10.3062 24.9342C10.1091 24.7116 9.97843 24.5065 9.91422 24.319C9.85322 24.1256 9.83471 23.9518 9.85869 23.7976C9.88005 23.6344 9.92287 23.4943 9.98716 23.3775C10.0836 23.2023 10.189 23.1005 10.3035 23.0722C10.4213 23.0381 10.543 23.0518 10.6689 23.1135C10.798 23.1693 10.9275 23.252 11.0575 23.3616C11.1848 23.4621 11.306 23.5668 11.421 23.6758L14.3478 26.405ZM11.1801 21.7283C11.1061 21.8627 11.0932 22.0382 11.1414 22.2549C11.1869 22.4626 11.2876 22.7082 11.4435 22.9919C11.5968 23.2665 11.7981 23.5713 12.0475 23.9064C12.2942 24.2324 12.5789 24.5793 12.9015 24.9471C13.2274 25.309 13.587 25.6857 13.9803 26.0772L12.9794 25.241C12.5131 24.7333 12.1293 24.29 11.828 23.9111C11.5298 23.5264 11.3061 23.1864 11.1566 22.8911C11.0013 22.5925 10.9176 22.3296 10.9057 22.1024C10.8912 21.8661 10.9369 21.6516 11.043 21.4589C11.133 21.2953 11.2488 21.1955 11.3905 21.1593C11.5354 21.1172 11.6808 21.1364 11.8268 21.2168C11.9436 21.281 12.0356 21.3697 12.1028 21.4828C12.1641 21.5926 12.1982 21.7103 12.2052 21.8359C12.2096 21.9524 12.1812 22.0662 12.1201 22.1772C12.0655 22.2765 11.9926 22.3467 11.9015 22.3878C11.8077 22.4199 11.7112 22.4087 11.6119 22.354C11.5184 22.3026 11.4463 22.2401 11.3955 22.1665C11.3389 22.0896 11.3003 22.0076 11.2799 21.9202C11.2595 21.8329 11.2556 21.7432 11.2681 21.6512C11.25 21.6565 11.2332 21.6663 11.2178 21.6806C11.2055 21.689 11.1929 21.705 11.1801 21.7283Z" fill="#F5C063"/>
<path d="M14.2407 17.3637C14.099 17.5232 14.0265 17.7353 14.0232 17.9999C14.0194 18.2551 14.0718 18.5425 14.1803 18.8619C14.2883 19.1719 14.4348 19.4938 14.6197 19.8277C14.8091 20.1565 15.0262 20.4743 15.2709 20.7809C15.5157 21.0876 15.7701 21.3583 16.0342 21.593C16.2585 21.7923 16.4539 21.9036 16.6206 21.9268C16.7916 21.9451 16.9392 21.8844 17.0632 21.7449C17.2049 21.5854 17.2777 21.3781 17.2815 21.1228C17.2848 20.8582 17.2346 20.5684 17.1311 20.2534C17.0225 19.9339 16.8736 19.6098 16.6842 19.281C16.4948 18.9521 16.2802 18.6366 16.0405 18.3343C15.7957 18.0276 15.5388 17.7547 15.2697 17.5156C15.0405 17.3119 14.845 17.2006 14.6834 17.1818C14.5167 17.1586 14.3692 17.2192 14.2407 17.3637ZM15.0892 21.9037C14.8699 21.7089 14.6573 21.4664 14.4513 21.1763C14.2453 20.8863 14.0684 20.5685 13.9205 20.223C13.7727 19.8776 13.6694 19.5271 13.6107 19.1717C13.5564 18.8113 13.5688 18.4611 13.6479 18.1212C13.722 17.7768 13.8831 17.4651 14.1311 17.186C14.4057 16.8771 14.7221 16.7168 15.0803 16.7051C15.4379 16.684 15.8161 16.8506 16.2147 17.2049C16.434 17.3997 16.6466 17.6422 16.8526 17.9323C17.0586 18.2224 17.2355 18.5401 17.3834 18.8856C17.5312 19.231 17.6323 19.584 17.6866 19.9444C17.7453 20.2998 17.7376 20.6497 17.6635 20.9941C17.5844 21.334 17.4208 21.6435 17.1728 21.9226C16.8982 22.2315 16.5796 22.3944 16.217 22.411C15.8588 22.4227 15.4829 22.2536 15.0892 21.9037Z" fill="#F5C063"/>
<path d="M20.4364 17.1565C20.5119 17.3423 20.5921 17.474 20.677 17.5517C20.7579 17.6241 20.8485 17.6217 20.9489 17.5445C21.0547 17.4633 21.1078 17.33 21.1083 17.1446C21.11 16.9499 21.0479 16.6613 20.9221 16.2787L20.7998 15.9061L20.9504 15.7904L21.197 16.5215C21.2826 16.7752 21.3219 17.0014 21.3149 17.2002C21.3092 17.3896 21.2684 17.5554 21.1928 17.6977C21.1171 17.8399 21.0105 17.9638 20.8731 18.0694C20.6986 18.2035 20.5427 18.2686 20.4053 18.2649C20.2773 18.2624 20.1601 18.2138 20.0536 18.119C19.9525 18.0202 19.8637 17.8992 19.7873 17.7561C19.7122 17.6037 19.6444 17.4498 19.5839 17.2945L17.5799 12.0116C17.4947 11.7912 17.3878 11.6631 17.2594 11.6273C17.131 11.5915 16.9373 11.6731 16.6782 11.8721L16.6058 11.663C16.8925 11.4343 17.1265 11.2082 17.3079 10.9847C17.4852 10.7559 17.6384 10.5121 17.7674 10.2533L20.4364 17.1565Z" fill="#F5C063"/>
<path d="M23.1588 15.1749C23.2085 15.3691 23.2702 15.5105 23.3438 15.5989C23.4142 15.6816 23.5043 15.6914 23.6143 15.6285C23.73 15.5623 23.8006 15.4374 23.8261 15.2538C23.8541 15.0611 23.8316 14.7667 23.7585 14.3707L23.6876 13.985L23.8525 13.8906L23.9981 14.6484C24.0487 14.9113 24.0572 15.1408 24.0234 15.3368C23.9921 15.5237 23.9293 15.6825 23.8352 15.8132C23.741 15.9439 23.6187 16.0523 23.4682 16.1384C23.2773 16.2477 23.114 16.2912 22.9784 16.269C22.8519 16.2492 22.7423 16.1852 22.6496 16.0769C22.5627 15.9654 22.4911 15.8335 22.4347 15.6814C22.3809 15.5202 22.3345 15.3586 22.2955 15.1965L21.0229 9.69146C20.9682 9.46162 20.8796 9.32028 20.7572 9.26744C20.6348 9.2146 20.4318 9.26931 20.1483 9.43157L20.1048 9.21454C20.4197 9.02662 20.6821 8.83419 20.892 8.63725C21.0986 8.43453 21.2833 8.21362 21.446 7.97454L23.1588 15.1749Z" fill="#F5C063"/>
<path d="M37.1411 11.3342C37.0888 11.4857 37.0636 11.6282 37.0653 11.7617C37.074 11.8887 37.1516 11.955 37.2982 11.9603C37.4314 11.9652 37.5574 11.8965 37.676 11.7541C37.7949 11.605 37.9246 11.343 38.0652 10.9679L38.1987 10.6025L38.3886 10.6095L38.1319 11.3306C38.0421 11.5941 37.9278 11.8 37.789 11.9484C37.6503 12.09 37.5066 12.1882 37.3578 12.2427C37.2091 12.2973 37.0681 12.3221 36.9348 12.3172C36.5351 12.3025 36.3322 12.105 36.3262 11.7245C36.3235 11.6176 36.3346 11.4946 36.3598 11.3555C36.3916 11.2165 36.4338 11.0647 36.4866 10.8998L38.1244 5.54638C38.1927 5.32207 38.1888 5.15515 38.1128 5.04561C38.0368 4.93608 37.8356 4.87531 37.5091 4.86331L37.5768 4.65565C37.9434 4.66246 38.2679 4.6377 38.5502 4.58137C38.8327 4.51837 39.1028 4.42824 39.3607 4.31097L37.1411 11.3342ZM34.878 11.9214C35.0445 11.9275 35.2346 11.8378 35.4483 11.6522C35.6688 11.4601 35.8918 11.2015 36.1172 10.8762C36.3496 10.5445 36.5635 10.1688 36.7591 9.74905C36.9615 9.32286 37.1245 8.88189 37.248 8.42612L37.0584 9.49988C36.7734 10.1765 36.4933 10.7166 36.2183 11.1201C35.95 11.5238 35.6791 11.8141 35.4058 11.9908C35.1393 12.1612 34.8629 12.2411 34.5764 12.2305C34.3699 12.2229 34.1884 12.1696 34.0319 12.0704C33.8824 11.9648 33.7678 11.8139 33.6883 11.6175C33.6088 11.4211 33.5746 11.173 33.5856 10.8732C33.5974 10.5534 33.66 10.2121 33.7734 9.8494C33.8937 9.48024 34.0571 9.11934 34.2635 8.76668C34.4699 8.41403 34.7118 8.09604 34.989 7.8127C35.2732 7.52294 35.5818 7.29413 35.9149 7.12625C36.2479 6.95838 36.5977 6.88118 36.9641 6.89465C37.1173 6.90029 37.2584 6.96551 37.3872 7.09033C37.5163 7.20849 37.5832 7.3844 37.5879 7.61806L37.5006 7.81499C37.4828 7.57417 37.4224 7.40184 37.3195 7.29798C37.2168 7.18747 37.0989 7.12976 36.9656 7.12486C36.7125 7.11556 36.4628 7.1931 36.2166 7.3575C35.977 7.52214 35.7554 7.74415 35.5517 8.02351C35.3479 8.30288 35.1663 8.61642 35.0067 8.96413C34.8474 9.30517 34.7211 9.65743 34.6276 10.0209C34.5345 10.3777 34.482 10.716 34.4702 11.0358C34.4595 11.3289 34.488 11.5501 34.5559 11.6994C34.6241 11.842 34.7314 11.916 34.878 11.9214Z" fill="#F5C063"/>
<path d="M44.7758 8.24896C44.5719 8.18647 44.3489 8.20881 44.1069 8.31596C43.8732 8.41869 43.6337 8.58588 43.3885 8.81754C43.1515 9.04477 42.9198 9.31194 42.6932 9.61905C42.473 9.92812 42.2744 10.2577 42.0975 10.6079C41.9205 10.9581 41.7802 11.3021 41.6767 11.64C41.5889 11.9268 41.569 12.1508 41.6173 12.312C41.6719 12.4752 41.7884 12.5841 41.9669 12.6388C42.1709 12.7012 42.3897 12.6811 42.6234 12.5784C42.8654 12.4712 43.108 12.305 43.3514 12.0797C43.5966 11.8481 43.8294 11.5777 44.0495 11.2687C44.2697 10.9596 44.4673 10.6332 44.6424 10.2893C44.8194 9.93916 44.9606 9.59196 45.066 9.24775C45.1558 8.95453 45.1757 8.73051 45.1255 8.57569C45.0772 8.41449 44.9607 8.30558 44.7758 8.24896ZM41.0009 10.91C41.0868 10.6295 41.2188 10.3353 41.3968 10.0272C41.5748 9.71921 41.7901 9.42608 42.0427 9.14786C42.2953 8.86963 42.5709 8.62985 42.8697 8.42852C43.1748 8.22914 43.4983 8.09468 43.8404 8.02515C44.1844 7.94924 44.5348 7.96595 44.8918 8.0753C45.287 8.19636 45.5644 8.41732 45.7241 8.73816C45.8922 9.05458 45.8981 9.46777 45.7419 9.97771C45.6559 10.2582 45.524 10.5524 45.3459 10.8605C45.1679 11.1685 44.9526 11.4616 44.7001 11.7399C44.4475 12.0181 44.1686 12.2569 43.8635 12.4563C43.5648 12.6576 43.2434 12.7962 42.8995 12.8721C42.5574 12.9417 42.2079 12.9218 41.851 12.8124C41.4558 12.6913 41.1751 12.4694 41.009 12.1466C40.8493 11.8258 40.8466 11.4136 41.0009 10.91Z" fill="#F5C063"/>
<path d="M48.839 14.6224C48.524 14.7048 48.2083 14.7391 47.8919 14.7253C47.5847 14.7096 47.3022 14.6185 47.0446 14.4522C46.7869 14.286 46.6114 14.1092 46.518 13.922C46.4246 13.7347 46.3912 13.5466 46.418 13.3576C46.4484 13.163 46.516 12.9845 46.6208 12.822C46.798 12.5475 47.059 12.3153 47.4038 12.1252C47.7486 11.9351 48.1392 11.7786 48.5756 11.6556C49.0213 11.5306 49.4803 11.4341 49.9527 11.366C50.4251 11.298 50.871 11.2525 51.2904 11.2296L51.4411 11.2911C51.3298 11.2669 51.2038 11.2531 51.0632 11.2496C50.9263 11.2406 50.7903 11.2361 50.6553 11.2363C50.5239 11.2308 50.399 11.2216 50.2804 11.2086C50.1655 11.19 50.0688 11.1553 49.9904 11.1047C49.884 11.036 49.8132 10.9428 49.7782 10.825C49.7524 10.7051 49.6918 10.6145 49.5966 10.5531C49.507 10.4952 49.4061 10.4856 49.2938 10.5243C49.1852 10.5573 49.0369 10.652 48.8487 10.8083L48.5473 11.0541L48.3876 10.9511L48.9767 10.4624C49.302 10.2043 49.567 10.0579 49.7718 10.0234C49.9858 9.98695 50.1656 10.0157 50.3112 10.1097C50.4176 10.1784 50.4892 10.2642 50.5258 10.3672C50.5681 10.4739 50.6076 10.5787 50.6443 10.6817C50.6901 10.7827 50.7663 10.8676 50.8727 10.9362C51.0072 11.023 51.1402 11.0811 51.272 11.1106C51.4073 11.1345 51.5543 11.1341 51.713 11.1096L51.9337 11.0258L52.0559 11.2237C51.6092 11.2766 51.16 11.3517 50.7084 11.4491C50.2624 11.55 49.8326 11.6813 49.4189 11.8428C49.0144 12.0023 48.643 12.2029 48.3045 12.4446C47.9696 12.6808 47.6937 12.9669 47.4768 13.303C47.2961 13.5831 47.2115 13.8062 47.2233 13.9725C47.235 14.1387 47.3109 14.267 47.4509 14.3574C47.619 14.4659 47.8279 14.5293 48.0779 14.5478C48.3314 14.5607 48.6082 14.5251 48.9084 14.4411L48.839 14.6224ZM49.4788 15.678C49.7533 15.8552 50.042 15.9304 50.3448 15.9037C50.6533 15.8806 50.9543 15.7892 51.2478 15.6295C51.5449 15.4642 51.8192 15.2604 52.0708 15.0181C52.3316 14.7738 52.5526 14.5236 52.7337 14.2676C52.9184 14.0059 53.0452 13.7664 53.1141 13.5491C53.0221 13.458 52.9326 13.3446 52.8455 13.2091C52.762 13.068 52.708 12.9181 52.6835 12.7594C52.6625 12.5951 52.7008 12.4374 52.7985 12.2861C52.8924 12.1405 52.9985 12.0622 53.1167 12.0512C53.2349 12.0401 53.3332 12.06 53.4116 12.1106C53.4956 12.1648 53.5522 12.237 53.5813 12.3272C53.616 12.421 53.6296 12.5289 53.6222 12.6511C53.6147 12.7732 53.5909 12.9086 53.5505 13.0571C53.5138 13.2001 53.4615 13.3488 53.3935 13.5033C53.2869 13.7915 53.1267 14.0888 52.9131 14.3953C52.6995 14.7017 52.4476 14.9875 52.1575 15.2526C51.8711 15.512 51.5571 15.722 51.2155 15.8824C50.8739 16.0428 50.5219 16.1211 50.1594 16.1173C49.8025 16.117 49.4476 16.003 49.0947 15.7753C48.9155 15.6596 48.7719 15.5194 48.6641 15.3546C48.5562 15.1897 48.5089 14.9926 48.5221 14.7631C48.5409 14.5372 48.6461 14.2758 48.8377 13.9789C48.9968 13.7325 49.1914 13.5169 49.4217 13.3323C49.6575 13.1512 49.9013 13.007 50.1531 12.8997C50.4048 12.7924 50.6368 12.7279 50.8492 12.7063C51.0615 12.6846 51.2265 12.7118 51.3441 12.7877C51.4282 12.8419 51.4699 12.9125 51.4693 12.9994C51.4744 13.0899 51.4518 13.1864 51.4015 13.2889C51.3605 13.3893 51.3129 13.4816 51.2586 13.5656C51.0634 13.8681 50.7806 14.122 50.4101 14.3272C50.0452 14.536 49.6042 14.66 49.087 14.6992L49.1426 14.5208C49.5396 14.4835 49.9123 14.367 50.2608 14.1713C50.6092 13.9756 50.8792 13.7294 51.0708 13.4325C51.1431 13.3205 51.1916 13.2208 51.2161 13.1335C51.2443 13.0406 51.2276 12.9743 51.166 12.9346C51.0764 12.8767 50.9286 12.8845 50.7226 12.9578C50.5202 13.0256 50.3046 13.1443 50.076 13.3142C49.8566 13.482 49.6674 13.6892 49.5083 13.9357C49.3782 14.1373 49.2741 14.3478 49.196 14.5672C49.1235 14.7902 49.1035 14.9994 49.136 15.195C49.1741 15.3941 49.2884 15.5551 49.4788 15.678Z" fill="#F5C063"/>
<path d="M53.319 18.6023L52.7544 17.9404L56.7972 16.0695C56.8754 16.0379 56.9543 15.9969 57.034 15.9465C57.123 15.8968 57.1843 15.8402 57.2177 15.7766C57.2562 15.7087 57.2408 15.6342 57.1716 15.5531C57.0764 15.4415 56.9363 15.3902 56.7511 15.3991C56.5711 15.4037 56.286 15.4804 55.8959 15.6291L55.53 15.7703L55.4067 15.6257L56.1243 15.3422C56.5391 15.1813 56.8664 15.1387 57.1063 15.2145C57.3505 15.2954 57.5418 15.417 57.6802 15.5793C57.81 15.7314 57.8701 15.8686 57.8604 15.9908C57.855 16.118 57.8012 16.2296 57.699 16.3256C57.6062 16.4222 57.4856 16.512 57.3372 16.5947C57.1981 16.6783 57.0547 16.7567 56.9071 16.8301L53.319 18.6023ZM55.2001 17.6025C55.808 17.3907 56.3381 17.2366 56.7902 17.1401C57.2424 17.0436 57.6316 16.9964 57.9577 16.9987C58.2889 16.9966 58.5664 17.0447 58.7903 17.1428C59.0236 17.2417 59.2182 17.3825 59.3739 17.5651C59.5772 17.8035 59.6574 18.0156 59.6142 18.2013C59.5805 18.3878 59.4706 18.5517 59.2844 18.6929C59.1033 18.8299 58.8929 18.9479 58.6533 19.0471L55.8022 20.204C55.6263 20.2751 55.4948 20.3522 55.4079 20.4351C55.3303 20.5188 55.3391 20.6164 55.4343 20.728C55.5164 20.8244 55.6497 20.8728 55.8341 20.8733C56.0228 20.8788 56.3148 20.805 56.71 20.652L57.0759 20.5108L57.1992 20.6554L56.4815 20.9389C56.2079 21.0495 55.9699 21.0992 55.7674 21.0879C55.5693 21.0816 55.4002 21.0374 55.2601 20.9554C55.1193 20.8827 55.0035 20.7931 54.9126 20.6866C54.8088 20.5649 54.7426 20.4461 54.7139 20.3303C54.6896 20.2196 54.6931 20.1159 54.7245 20.0191C54.7682 19.8854 54.8722 19.766 55.0366 19.6608C55.201 19.5557 55.398 19.4578 55.6274 19.3673L58.4199 18.2342C58.5126 18.199 58.6136 18.1479 58.7229 18.0809C58.8417 18.0146 58.9283 17.9364 58.9828 17.8462C59.0423 17.7516 59.0201 17.6434 58.9163 17.5217C58.8125 17.3999 58.6489 17.316 58.4256 17.2699C58.2022 17.2238 57.9289 17.2116 57.6057 17.2332C57.2875 17.2505 56.9308 17.3049 56.5358 17.3965C56.1458 17.4838 55.7297 17.602 55.2876 17.7514C54.8548 17.9014 54.4078 18.0811 53.9467 18.2904L55.2001 17.6025Z" fill="#F5C063"/>
</svg>
